<svg width="256" height="48" viewBox="0 0 256 48" fill="none" xmlns="http://www.w3.org/2000/svg">
<g clip-path="url(#clip0_11_586)">
<path d="M61.7051 2.03955H68.0966V36.902H78.6134V42.7126H61.7051V2.03955Z" fill="#F15A29"/>
<path d="M90.6899 43.2935C87.5523 43.2935 85.1507 42.4027 83.485 40.6207C81.8194 38.8388 80.9866 36.3211 80.9866 33.0671V11.6848C80.9866 8.43101 81.8194 5.91315 83.485 4.1313C85.1507 2.34943 87.5523 1.4585 90.6899 1.4585C93.8275 1.4585 96.2291 2.34943 97.8949 4.1313C99.5605 5.91315 100.393 8.43101 100.393 11.6848V33.0671C100.393 36.3211 99.5605 38.8388 97.8949 40.6207C96.2291 42.4027 93.8275 43.2935 90.6899 43.2935ZM90.6899 37.4831C92.8979 37.4831 94.0019 36.1467 94.0019 33.4739V11.2781C94.0019 8.60531 92.8979 7.26891 90.6899 7.26891C88.4819 7.26891 87.3779 8.60531 87.3779 11.2781V33.4739C87.3779 36.1467 88.4819 37.4831 90.6899 37.4831Z" fill="#F15A29"/>
<path d="M113.78 43.2935C110.681 43.2935 108.318 42.422 106.691 40.6788C105.064 38.8971 104.251 36.3598 104.251 33.0671V11.6848C104.251 8.39227 105.064 5.87442 106.691 4.1313C108.318 2.34943 110.681 1.4585 113.78 1.4585C116.879 1.4585 119.242 2.34943 120.869 4.1313C122.496 5.87442 123.309 8.39227 123.309 11.6848V15.1711H117.266V11.2781C117.266 8.60531 116.162 7.26891 113.954 7.26891C111.746 7.26891 110.642 8.60531 110.642 11.2781V33.5321C110.642 36.1662 111.746 37.4831 113.954 37.4831C116.162 37.4831 117.266 36.1662 117.266 33.5321V25.5718H114.071V19.7614H123.309V33.0671C123.309 36.3598 122.496 38.8971 120.869 40.6788C119.242 42.422 116.879 43.2935 113.78 43.2935Z" fill="#F15A29"/>
<path d="M136.651 43.2935C133.514 43.2935 131.112 42.4027 129.446 40.6207C127.781 38.8388 126.948 36.3211 126.948 33.0671V11.6848C126.948 8.43101 127.781 5.91315 129.446 4.1313C131.112 2.34943 133.514 1.4585 136.651 1.4585C139.789 1.4585 142.19 2.34943 143.856 4.1313C145.522 5.91315 146.355 8.43101 146.355 11.6848V33.0671C146.355 36.3211 145.522 38.8388 143.856 40.6207C142.19 42.4027 139.789 43.2935 136.651 43.2935ZM136.651 37.4831C138.859 37.4831 139.963 36.1467 139.963 33.4739V11.2781C139.963 8.60531 138.859 7.26891 136.651 7.26891C134.443 7.26891 133.339 8.60531 133.339 11.2781V33.4739C133.339 36.1467 134.443 37.4831 136.651 37.4831Z" fill="#F15A29"/>
<path d="M150.689 2.03955H157.081V42.7126H150.689V2.03955Z" fill="#1D234F"/>
<path d="M161.867 2.03955H171.28C174.456 2.03955 176.838 2.89174 178.427 4.59614C180.016 6.30053 180.81 8.79901 180.81 12.0916V16.1008C180.81 19.3934 180.016 21.8918 178.427 23.5963C176.838 25.3006 174.456 26.1528 171.28 26.1528H168.259V42.7126H161.867V2.03955ZM171.28 20.3424C172.326 20.3424 173.101 20.0518 173.605 19.4708C174.147 18.8897 174.418 17.902 174.418 16.5075V11.6849C174.418 10.2904 174.147 9.30257 173.605 8.72153C173.101 8.14049 172.326 7.84998 171.28 7.84998H168.259V20.3424H171.28Z" fill="#1D234F"/>
<path d="M192.816 43.2935C189.719 43.2935 187.375 42.422 185.786 40.6788C184.199 38.8971 183.403 36.3598 183.403 33.0671V30.743H189.447V33.5321C189.447 36.1662 190.551 37.4831 192.759 37.4831C193.843 37.4831 194.656 37.1732 195.199 36.5535C195.779 35.895 196.071 34.8491 196.071 33.4158C196.071 31.7115 195.683 30.2201 194.909 28.9419C194.135 27.6247 192.701 26.0559 190.608 24.2353C187.975 21.9111 186.135 19.8195 185.088 17.9601C184.043 16.062 183.52 13.9315 183.52 11.5686C183.52 8.35354 184.333 5.87442 185.96 4.1313C187.587 2.34943 189.951 1.4585 193.05 1.4585C196.109 1.4585 198.415 2.34943 199.963 4.1313C201.552 5.87442 202.346 8.39227 202.346 11.6848V13.3699H196.303V11.2781C196.303 9.88362 196.032 8.87647 195.49 8.25669C194.947 7.59818 194.154 7.26891 193.107 7.26891C190.976 7.26891 189.912 8.56658 189.912 11.1619C189.912 12.6339 190.299 14.009 191.074 15.2873C191.887 16.5655 193.339 18.115 195.432 19.9356C198.104 22.2598 199.944 24.371 200.952 26.2691C201.959 28.1671 202.463 30.3943 202.463 32.951C202.463 36.2823 201.629 38.8388 199.963 40.6207C198.336 42.4027 195.954 43.2935 192.816 43.2935Z" fill="#1D234F"/>
<path d="M215.424 43.2935C212.325 43.2935 209.962 42.422 208.335 40.6788C206.707 38.8971 205.895 36.3598 205.895 33.0672V2.03955H212.287V33.5321C212.287 34.9265 212.557 35.9337 213.099 36.5536C213.68 37.1732 214.495 37.4832 215.539 37.4832C216.586 37.4832 217.379 37.1732 217.922 36.5536C218.503 35.9337 218.794 34.9265 218.794 33.5321V2.03955H224.952V33.0672C224.952 36.3598 224.139 38.8971 222.512 40.6788C220.885 42.422 218.522 43.2935 215.424 43.2935Z" fill="#1D234F"/>
<path d="M229.504 2.03955H238.627L242.694 31.1497H242.809L246.878 2.03955H256V42.7126H249.957V11.9173H249.842L245.192 42.7126H239.846L235.198 11.9173H235.083V42.7126H229.504V2.03955Z" fill="#1D234F"/>
<path d="M0 42.7125C7.86317 42.7125 14.2375 36.3381 14.2375 28.4751C14.2375 20.6119 7.86317 14.2375 0 14.2375V24.2037C2.35893 24.2037 4.27122 26.116 4.27122 28.4751C4.27122 30.834 2.35893 32.7463 0 32.7463V42.7125Z" fill="#F15A29"/>
<path d="M47.4583 18.9834C45.0253 18.2127 42.4344 17.7969 39.7463 17.7969C25.6581 17.7969 14.2375 29.2177 14.2375 43.3057C14.2375 44.7198 14.3526 46.107 14.5738 47.4583H30.4232C29.8575 46.1898 29.5429 44.7846 29.5429 43.3057C29.5429 37.6705 34.1111 33.1022 39.7463 33.1022C42.8263 33.1022 45.5874 34.4668 47.4583 36.6244V18.9834Z" fill="#FCCA46"/>
<path d="M2.50317 0C3.68356 10.678 12.7364 18.9834 23.7291 18.9834C34.7216 18.9834 43.7745 10.678 44.9548 0H29.682C28.7392 2.36368 26.4291 4.03394 23.7291 4.03394C21.0289 4.03394 18.719 2.36368 17.776 0H2.50317Z" fill="#1D234F"/>
</g>
<defs>
<clipPath id="clip0_11_586">
<rect width="256" height="48" fill="white"/>
</clipPath>
</defs>
</svg>
